<?xml version="1.0" encoding="utf-8"?>
<!-- Generator: Adobe Illustrator 21.1.0, SVG Export Plug-In . SVG Version: 6.00 Build 0)  -->
<svg version="1.1" id="Layer_1" xmlns="http://www.w3.org/2000/svg" xmlns:xlink="http://www.w3.org/1999/xlink" x="0px" y="0px"
	 viewBox="0 0 979.1 152.9" style="enable-background:new 0 0 979.1 152.9;" xml:space="preserve">
<style type="text/css">
	.st0{fill:#EFF6F7;}
	.st1{fill:url(#SVGID_1_);}
	.st2{fill:#00000D;}
	.st3{fill:url(#SVGID_2_);}
	.st4{fill:#FEE9E5;}
	.st5{fill:#FAE5F5;}
	.st6{fill:#FEE8FA;}
	.st7{fill:#FEE6E4;}
	.st8{fill:#FEE7EF;}
	.st9{fill:#F9E4E3;}
	.st10{fill:#F6E4F4;}
	.st11{fill:#F3E3F1;}
	.st12{fill:#F6E4F3;}
	.st13{fill:#ECE2EC;}
	.st14{fill:#EFE2E2;}
	.st15{fill:#E3E2E3;}
	.st16{fill:#FBE5ED;}
	.st17{fill:#F6E4EC;}
	.st18{fill:url(#SVGID_3_);}
	.st19{fill:#FCFCFC;}
	.st20{fill:#020202;}
	.st21{fill:none;stroke:#00000D;stroke-miterlimit:10;}
	.st22{fill:url(#SVGID_4_);}
	.st23{fill:url(#SVGID_5_);}
	.st24{display:none;}
	.st25{display:inline;fill:#020202;}
</style>
<path class="st2" d="M906.8,3.5c10.1,0,19.1,1.5,26.7,4.4c7.6,2.9,14.1,6.9,19.3,11.9c5.2,5,9.2,10.9,11.9,17.6
	c2.7,6.8,4,14.1,4,21.8l0.2,35.2h-0.2l-0.1,1.9c-0.3,7.4-1.9,14.4-4.8,20.8c-2.8,6.4-6.9,12-12.1,16.8c-5.2,4.8-11.7,8.6-19.1,11.3
	c-7.4,2.8-16.2,4.2-25.9,4.2h-15.9c-10.1,0-19.1-1.5-26.8-4.4c-7.7-2.9-14.2-7-19.5-12.1c-5.2-5.1-9.2-11-11.9-17.8
	c-2.7-6.8-4-14.1-4-21.8V58.1h0.2l0.1-1.9c0.3-7.3,1.9-14.3,4.8-20.6c2.8-6.3,6.9-11.9,12-16.7c5.1-4.7,11.6-8.5,19.1-11.3
	c7.5-2.8,16.3-4.2,26.1-4.2H906.8 M890.9,115.1h16c2.9,0,5.7-0.6,8.4-1.7c2.7-1.1,5-2.7,7-4.7c2-2,3.6-4.3,4.8-7
	c1.3-2.7,1.9-5.5,1.9-8.4V59.2c0-2.9-0.6-5.7-1.9-8.3c-1.2-2.5-2.9-4.8-4.8-6.8c-2-2-4.4-3.6-7-4.7c-2.7-1.1-5.5-1.7-8.4-1.7h-16
	c-5.9,0-11.1,2.2-15.5,6.4c-4.4,4.3-6.6,9.4-6.6,15.1v34.1c0,2.9,0.6,5.7,1.9,8.4c1.2,2.6,2.9,5,4.8,7c2,2,4.4,3.6,7,4.7
	C885.2,114.6,888,115.1,890.9,115.1 M732.9,3.5c10.1,0,19.1,1.5,26.7,4.4c7.6,2.9,14.1,7,19.4,11.9c5.2,5,9.2,10.9,11.9,17.6
	c2.7,6.8,4,14.1,4,21.8v87.3h-40l-0.3-87.3c0-5.7-2.2-10.8-6.6-15.1c-4.4-4.3-9.5-6.4-15.2-6.4h-9.4c-8.8,0-15.8,2.2-20.8,6.6
	c-5.1,4.5-7.7,11.5-7.7,20.9v81.3h-40.3V59.2c0-5.7-2.2-10.8-6.6-15.1c-4.4-4.3-9.5-6.4-15.2-6.4h-9.6c-8.8,0-15.8,2.2-20.7,6.6
	c-3.9,3.5-6.4,8.6-7.2,15.2l0,0.1v0.1v86.7h-40.6V55.6v-0.2l0-0.2c-0.8-4.1-2.9-7.9-6.2-11.1c-4.4-4.3-9.5-6.4-15.2-6.4H524
	c-8.8,0-15.8,2.2-20.8,6.6c-5.1,4.5-7.7,11.5-7.7,20.9v81.3h-40.3V59.2c0-5.7-2.2-10.8-6.6-15.1c-4.4-4.3-9.5-6.4-15.2-6.4h-9.6
	c-8.8,0-15.8,2.2-20.7,6.6c-5,4.5-7.6,11.5-7.6,20.9v81.3h-40.3V5.8h40.3v5.8v4.7l3.4-3.2c1.3-1.2,2.8-2.4,4.3-3.4
	c9.1-6.2,20.4-6.2,30.3-6.2c9.3,0,17.6,1.3,24.9,3.8c7.2,2.5,13.6,6,18.9,10.3l1.3,1l1.3-1c5.3-4.3,11.8-7.8,19-10.3
	c7.3-2.5,15.8-3.8,25.3-3.8h9.4c10.1,0,19.1,1.5,26.7,4.4c6.3,2.4,12,5.7,16.9,9.8l1.7,1.4l1.2-1.7c1.7-1.1,9.8-6.6,13.9-8.3
	c6.5-2.6,10.4-3.8,14.7-4.4c5.4-0.8,10.3-1.2,14.9-1.2h9.6c9.3,0,17.6,1.3,24.9,3.8c7.2,2.5,13.6,6,18.9,10.3l1.3,1l1.3-1
	c5.3-4.3,11.8-7.8,19-10.3c7.3-2.5,15.8-3.8,25.3-3.8H732.9 M259.2,3.5c10.1,0,19.1,1.5,26.7,4.4c7.6,2.9,14.1,6.9,19.3,11.9
	c5.2,5,9.2,10.9,11.9,17.6c2.7,6.8,4,14.1,4,21.8l0.2,35.2h-0.2l-0.1,1.9c-0.3,7.4-1.9,14.3-4.8,20.8c-2.8,6.4-6.9,12-12.1,16.8
	c-5.2,4.8-11.7,8.6-19.1,11.3c-7.4,2.8-16.2,4.2-25.9,4.2h-15.9c-10.1,0-19.1-1.5-26.8-4.4c-7.7-2.9-14.2-7-19.5-12.1
	c-5.2-5.1-9.2-11-11.9-17.8c-2.7-6.8-4-14.1-4-21.8V58.1h0.2l0.1-1.9c0.3-7.3,1.9-14.3,4.8-20.6c2.8-6.3,6.9-11.9,12-16.7
	c5.1-4.7,11.6-8.5,19.1-11.3c7.5-2.8,16.3-4.2,26.1-4.2H259.2 M243.3,115.1h16c2.9,0,5.7-0.6,8.4-1.7c2.7-1.1,5-2.7,7-4.7
	c2-2,3.6-4.3,4.8-7c1.3-2.7,1.9-5.5,1.9-8.4V59.2c0-2.9-0.6-5.7-1.9-8.3c-1.2-2.5-2.9-4.8-4.8-6.8c-2-2-4.4-3.6-7-4.7
	c-2.7-1.1-5.5-1.7-8.4-1.7h-16c-5.9,0-11.1,2.2-15.5,6.4c-4.4,4.3-6.6,9.4-6.6,15.1v34.1c0,2.9,0.6,5.7,1.9,8.4c1.2,2.6,2.9,5,4.8,7
	c2,2,4.4,3.6,7,4.7C237.7,114.6,240.5,115.1,243.3,115.1 M88.2,3.5c9.9,0,18.9,1.5,26.6,4.4c7.7,2.9,14.2,6.9,19.3,11.9
	c5.1,5,9.1,10.9,11.7,17.7c2.7,6.8,4,14.1,4,21.8l0.3,87.3h-40V59.2c0-5.7-2.2-10.8-6.6-15.1c-4.4-4.3-9.5-6.4-15.3-6.4h-9.7
	c-8.8,0-15.8,2.2-20.8,6.6c-4.7,4.1-7.2,10.5-7.6,18.9h-0.3v2v81.3H10.2V5.8H50l0.1,5.9l0.1,4.5l3.3-3.1c3.1-2.9,6.7-5.3,10.8-7
	c4.1-1.7,8.9-2.6,14.3-2.6H88.2 M906.8,1.5h-15.8c-10.1,0-19,1.4-26.8,4.3c-7.8,2.9-14.4,6.8-19.7,11.7c-5.4,4.9-9.5,10.7-12.5,17.3
	c-2.9,6.6-4.6,13.7-4.9,21.3h-0.3v37.2c0,8,1.4,15.5,4.2,22.5c2.8,7,6.9,13.2,12.3,18.5c5.5,5.3,12.2,9.5,20.1,12.5
	c8,3,17.1,4.6,27.5,4.6h15.9c10,0,18.9-1.4,26.6-4.3c7.7-2.9,14.3-6.8,19.7-11.7c5.5-4.9,9.7-10.8,12.6-17.4
	c2.9-6.7,4.6-13.8,4.9-21.5h0.3l-0.3-37.2c0-8-1.4-15.5-4.2-22.5c-2.8-7-6.9-13.1-12.3-18.4c-5.5-5.2-12.1-9.3-20-12.4
	C926.3,3,917.2,1.5,906.8,1.5L906.8,1.5z M890.9,113.1c-2.6,0-5.1-0.5-7.6-1.6c-2.4-1-4.6-2.5-6.4-4.3c-1.8-1.8-3.3-3.9-4.4-6.4
	c-1.1-2.4-1.7-4.9-1.7-7.5V59.2c0-5.2,2-9.8,6-13.7c4-3.9,8.7-5.9,14.1-5.9h16c2.6,0,5.1,0.5,7.6,1.6c2.4,1,4.6,2.5,6.4,4.3
	c1.8,1.8,3.3,3.9,4.4,6.2c1.1,2.3,1.7,4.8,1.7,7.4v34.1c0,2.6-0.6,5.1-1.7,7.5c-1.1,2.4-2.6,4.6-4.4,6.4c-1.8,1.8-4,3.3-6.4,4.3
	s-5,1.6-7.6,1.6H890.9L890.9,113.1z M732.9,1.5h-9.4c-9.7,0-18.4,1.3-25.9,3.9C690.1,8,683.5,11.5,678,16
	c-5.6-4.5-12.1-8.1-19.5-10.7c-7.5-2.6-16-3.9-25.5-3.9h-9.6c-5.6,0-10.8,0.6-15.2,1.2c-4.7,0.7-8.9,2-15.2,4.6
	c-4.8,1.9-14.6,8.7-14.6,8.7l-0.2,0.2c-5-4.1-10.7-7.5-17.4-10.1c-7.9-3-17.1-4.6-27.5-4.6H524c-9.7,0-18.4,1.3-25.9,3.9
	C490.5,8,484,11.5,478.4,16c-5.6-4.5-12.1-8.1-19.5-10.7c-7.5-2.6-16-3.9-25.5-3.9c-10.9,0-22,0.2-31.4,6.5
	c-1.6,1.1-3.1,2.3-4.5,3.6V3.8h-44.3v144.7h44.3V65.2c0-8.9,2.3-15.3,6.9-19.4c4.6-4.1,11.1-6.1,19.4-6.1h9.6c5.2,0,9.8,2,13.8,5.9
	c4,3.9,6,8.5,6,13.7v89.3h44.3V65.2c0-8.9,2.3-15.3,7-19.4c4.7-4.1,11.2-6.1,19.5-6.1h9.4c5.2,0,9.8,2,13.8,5.9
	c3,3,4.9,6.3,5.6,10.1v92.9h0.6H597h0.3V59.8c0.8-6.1,3-10.8,6.6-14c4.6-4.1,11.1-6.1,19.4-6.1h9.6c5.2,0,9.8,2,13.8,5.9
	c4,3.9,6,8.5,6,13.7v89.3H697V65.2c0-8.9,2.3-15.3,7-19.4c4.7-4.1,11.2-6.1,19.5-6.1h9.4c5.2,0,9.8,2,13.8,5.9c4,3.9,6,8.5,6,13.7
	l0.3,89.3h44V59.2c0-8-1.4-15.5-4.2-22.5c-2.8-7-6.9-13.1-12.4-18.4C775,13.2,768.3,9,760.4,6C752.5,3,743.3,1.5,732.9,1.5
	L732.9,1.5z M259.2,1.5h-15.8c-10.1,0-19,1.4-26.8,4.3c-7.8,2.9-14.4,6.8-19.7,11.7c-5.4,4.9-9.5,10.7-12.5,17.3
	c-2.9,6.6-4.6,13.7-4.9,21.3h-0.3v37.2c0,8,1.4,15.5,4.2,22.5c2.8,7,6.9,13.2,12.3,18.5c5.5,5.3,12.2,9.5,20.1,12.5
	c8,3,17.1,4.6,27.5,4.6h15.9c10,0,18.9-1.4,26.6-4.3c7.7-2.9,14.3-6.8,19.7-11.7c5.5-4.9,9.7-10.8,12.6-17.4
	c2.9-6.7,4.6-13.8,4.9-21.5h0.3l-0.3-37.2c0-8-1.4-15.5-4.2-22.5c-2.8-7-6.9-13.1-12.3-18.4c-5.5-5.2-12.1-9.3-20-12.4
	C278.8,3,269.6,1.5,259.2,1.5L259.2,1.5z M243.3,113.1c-2.6,0-5.1-0.5-7.6-1.6c-2.4-1-4.6-2.5-6.4-4.3c-1.8-1.8-3.3-3.9-4.4-6.4
	c-1.1-2.4-1.7-4.9-1.7-7.5V59.2c0-5.2,2-9.8,6-13.7c4-3.9,8.7-5.9,14.1-5.9h16c2.6,0,5.1,0.5,7.6,1.6c2.4,1,4.6,2.5,6.4,4.3
	c1.8,1.8,3.3,3.9,4.4,6.2c1.1,2.3,1.7,4.8,1.7,7.4v34.1c0,2.6-0.6,5.1-1.7,7.5c-1.1,2.4-2.6,4.6-4.4,6.4c-1.8,1.8-4,3.3-6.4,4.3
	c-2.4,1-5,1.6-7.6,1.6H243.3L243.3,113.1z M88.2,1.5h-9.6c-5.7,0-10.7,0.9-15.1,2.7c-4.3,1.8-8.1,4.3-11.4,7.4l-0.2-7.8H8.2v144.7
	h43.7V65.2h0.3c0-8.9,2.3-15.3,6.9-19.4c4.6-4.1,11.1-6.1,19.5-6.1h9.7c5.2,0,9.9,2,13.9,5.9c4,3.9,6,8.5,6,13.7v89.3h44l-0.3-89.3
	c0-8-1.4-15.5-4.2-22.5c-2.8-7-6.8-13.1-12.2-18.4c-5.4-5.2-12-9.3-20-12.4C107.5,3,98.4,1.5,88.2,1.5L88.2,1.5z"/>
</svg>
