<?xml version="1.0" encoding="utf-8"?>
<!-- Generator: Adobe Illustrator 21.1.0, SVG Export Plug-In . SVG Version: 6.00 Build 0)  -->
<svg version="1.1" id="Layer_1" xmlns="http://www.w3.org/2000/svg" xmlns:xlink="http://www.w3.org/1999/xlink" x="0px" y="0px"
	 viewBox="0 0 979.1 152.9" style="enable-background:new 0 0 979.1 152.9;" xml:space="preserve">
<style type="text/css">
	.st0{fill:#FFFFFF;}
	.st1{fill:#EFF6F7;}
	.st2{fill:url(#SVGID_1_);}
	.st3{fill:#FCFCFC;}
	.st4{fill:#00000D;}
	.st5{fill:url(#SVGID_2_);}
	.st6{fill:#FEE9E5;}
	.st7{fill:#FAE5F5;}
	.st8{fill:#FEE8FA;}
	.st9{fill:#FEE6E4;}
	.st10{fill:#FEE7EF;}
	.st11{fill:#F9E4E3;}
	.st12{fill:#F6E4F4;}
	.st13{fill:#F3E3F1;}
	.st14{fill:#F6E4F3;}
	.st15{fill:#ECE2EC;}
	.st16{fill:#EFE2E2;}
	.st17{fill:#E3E2E3;}
	.st18{fill:#FBE5ED;}
	.st19{fill:#F6E4EC;}
	.st20{fill:url(#SVGID_3_);}
	.st21{fill:#020202;}
	.st22{fill:url(#SVGID_4_);}
	.st23{fill:url(#SVGID_5_);}
	.st24{fill:url(#SVGID_6_);}
	.st25{fill:url(#SVGID_7_);}
	.st26{fill:url(#SVGID_8_);}
	.st27{fill:url(#SVGID_9_);}
	.st28{fill:url(#SVGID_10_);}
	.st29{display:none;}
	.st30{display:inline;fill:#020202;}
	.st31{fill:url(#SVGID_11_);}
	.st32{fill:url(#SVGID_12_);}
	.st33{fill:#FEEAFC;}
	.st34{fill:#FEE9E6;}
	.st35{fill:#E3E3E3;}
</style>
<linearGradient id="SVGID_1_" gradientUnits="userSpaceOnUse" x1="8.1742" y1="76.4252" x2="970.9481" y2="76.4252">
	<stop  offset="0" style="stop-color:#00000D"/>
	<stop  offset="1" style="stop-color:#FEF8FB;stop-opacity:0.5"/>
</linearGradient>
<path class="st2" d="M152.1,148.5h-44V59.2c0-5.2-2-9.8-6-13.7c-4-3.9-8.6-5.9-13.9-5.9h-9.7c-8.4,0-14.9,2-19.5,6.1
	c-4.6,4.1-6.9,10.5-6.9,19.4h-0.3v83.3H8.2V3.8h43.7l0.2,7.8c3.3-3.1,7.1-5.6,11.4-7.4c4.3-1.8,9.4-2.7,15.1-2.7h9.6
	c10.2,0,19.3,1.5,27.3,4.6c8,3,14.6,7.2,20,12.4s9.4,11.3,12.2,18.4c2.8,7,4.2,14.5,4.2,22.5L152.1,148.5z M323.2,96.5
	c-0.3,7.6-2,14.8-4.9,21.5c-2.9,6.7-7.1,12.5-12.6,17.4c-5.5,4.9-12,8.9-19.7,11.7c-7.7,2.9-16.6,4.3-26.6,4.3h-15.9
	c-10.4,0-19.6-1.5-27.5-4.6c-8-3-14.7-7.2-20.1-12.5c-5.5-5.3-9.6-11.5-12.3-18.5c-2.8-7-4.2-14.5-4.2-22.5V56.1h0.3
	c0.3-7.6,2-14.7,4.9-21.3c2.9-6.6,7.1-12.4,12.5-17.3c5.4-4.9,12-8.9,19.7-11.7c7.8-2.9,16.7-4.3,26.8-4.3h15.8
	c10.4,0,19.5,1.5,27.4,4.6c7.9,3,14.6,7.2,20,12.4c5.5,5.2,9.6,11.3,12.3,18.4c2.8,7,4.2,14.5,4.2,22.5l0.3,37.2H323.2z
	 M259.3,113.1c2.6,0,5.1-0.5,7.6-1.6c2.4-1,4.6-2.5,6.4-4.3c1.8-1.8,3.3-3.9,4.4-6.4c1.1-2.4,1.7-4.9,1.7-7.5V59.2
	c0-2.6-0.6-5.1-1.7-7.4c-1.1-2.3-2.6-4.4-4.4-6.2c-1.8-1.8-4-3.3-6.4-4.3c-2.4-1-5-1.6-7.6-1.6h-16c-5.4,0-10.1,2-14.1,5.9
	c-4,3.9-6,8.5-6,13.7v34.1c0,2.6,0.6,5.1,1.7,7.5c1.1,2.4,2.6,4.6,4.4,6.4c1.8,1.8,4,3.3,6.4,4.3c2.4,1,5,1.6,7.6,1.6H259.3z
	 M970.7,96.5c-0.4,7.6-2,14.8-4.9,21.5c-2.9,6.7-7.1,12.5-12.6,17.4c-5.5,4.9-12,8.9-19.7,11.7c-7.7,2.9-16.6,4.3-26.6,4.3h-15.9
	c-10.4,0-19.6-1.5-27.5-4.6c-8-3-14.7-7.2-20.1-12.5c-5.5-5.3-9.6-11.5-12.3-18.5c-2.8-7-4.2-14.5-4.2-22.5V56.1h0.3
	c0.3-7.6,2-14.7,4.9-21.3c2.9-6.6,7.1-12.4,12.5-17.3c5.4-4.9,12-8.9,19.7-11.7c7.8-2.9,16.7-4.3,26.8-4.3h15.8
	c10.4,0,19.5,1.5,27.4,4.6c7.9,3,14.5,7.2,20,12.4c5.5,5.2,9.6,11.3,12.3,18.4c2.8,7,4.2,14.5,4.2,22.5l0.3,37.2H970.7z
	 M906.8,113.1c2.6,0,5.1-0.5,7.6-1.6c2.4-1,4.6-2.5,6.4-4.3c1.8-1.8,3.3-3.9,4.4-6.4c1.1-2.4,1.7-4.9,1.7-7.5V59.2
	c0-2.6-0.6-5.1-1.7-7.4c-1.1-2.3-2.6-4.4-4.4-6.2s-4-3.3-6.4-4.3c-2.4-1-5-1.6-7.6-1.6h-16c-5.4,0-10.1,2-14.1,5.9
	c-4,3.9-6,8.5-6,13.7v34.1c0,2.6,0.6,5.1,1.7,7.5c1.1,2.4,2.6,4.6,4.4,6.4c1.8,1.8,4,3.3,6.4,4.3c2.4,1,5,1.6,7.6,1.6H906.8z
	 M792.8,36.7c-2.8-7-6.9-13.1-12.4-18.4C775,13.2,768.3,9,760.4,6c-7.9-3-17.1-4.6-27.5-4.6h-9.4c-9.7,0-18.4,1.3-25.9,3.9
	C690.1,8,683.5,11.5,678,16c-5.6-4.5-12.1-8.1-19.5-10.7c-7.5-2.6-16-3.9-25.5-3.9h-9.6c-5.6,0-10.8,0.6-15.2,1.2
	c-4.7,0.7-8.9,2-15.2,4.6c-4.8,1.9-14.6,8.7-14.6,8.7l-0.2,0.2c-5-4.1-10.7-7.5-17.4-10.1c-7.9-3-17.1-4.6-27.5-4.6H524
	c-9.7,0-18.4,1.3-25.9,3.9S484,11.5,478.4,16c-5.6-4.5-12.1-8.1-19.5-10.7c-7.5-2.6-16-3.9-25.5-3.9c-10.9,0-22,0.2-31.4,6.5
	c-1.6,1.1-3.1,2.3-4.5,3.6V3.8h-44.3v144.7h44.3V65.2c0-8.9,2.3-15.3,6.9-19.4c4.6-4.1,11.1-6.1,19.4-6.1h9.6c5.2,0,9.8,2,13.8,5.9
	c4,3.9,6,8.5,6,13.7v89.3h44.3V65.2c0-8.9,2.3-15.3,7-19.4c4.7-4.1,11.2-6.1,19.5-6.1h9.4c5.2,0,9.8,2,13.8,5.9
	c3,3,4.9,6.3,5.6,10.1v92.9h0.6H597h0.3V59.8c0.8-6.1,3-10.8,6.6-14c4.6-4.1,11.1-6.1,19.4-6.1h9.6c5.2,0,9.8,2,13.8,5.9
	c4,3.9,6,8.5,6,13.7v89.3H697V65.2c0-8.9,2.3-15.3,7-19.4c4.7-4.1,11.2-6.1,19.5-6.1h9.4c5.2,0,9.8,2,13.8,5.9c4,3.9,6,8.5,6,13.7
	l0.3,89.3h44V59.2C797,51.3,795.6,43.8,792.8,36.7z"/>
</svg>
